# xmcd
#
# Track frame offsets: 
#        150
#        17525
#        31775
#        48087
#        67200
#        79312
#        96300
#        114537
#        129425
#        149262
#        166962
#        182475
#        199575
#
# Disc length: 2817 seconds
#
# Revision: 2
# Processed by: cddbd v1.5.2PL0 Copyright (c) Steve Scherf et al.
# Submitted via: ExactAudioCopy v0.99pb4
#
DISCID=a90aff0d
DTITLE=Kid Bangham and Amyl Justin - Pressure Cooker
DYEAR=1997
DGENRE=Blues
TTITLE0=Danger Zone
TTITLE1=Shoot Me
TTITLE2=Face Down In The Blues
TTITLE3=I Wouldn't Treat A Dog
TTITLE4=Big Man Around Town
TTITLE5=My Turn To Talk
TTITLE6=No Justice
TTITLE7=Hurricane Jane
TTITLE8=Lonely One
TTITLE9=Kid Stuff
TTITLE10=Let's Do It Over
TTITLE11=I Go Crazy
TTITLE12=Rocket In My Pocket
EXTD=Kid Bangham - Guitar\nAmyl Justin - Vocals\nProduced By Kid Bangh
EXTD=am
EXTT0=
EXTT1=
EXTT2=
EXTT3=
EXTT4=
EXTT5=
EXTT6=
EXTT7=
EXTT8=
EXTT9=
EXTT10=
EXTT11=
EXTT12=
PLAYORDER=
